<svg width="155" height="127" viewBox="0 0 155 127" fill="none" xmlns="http://www.w3.org/2000/svg">
<path d="M144.629 0H9.64191C7.08471 0 4.63226 1.01584 2.82405 2.82405C1.01584 4.63226 0 7.08472 0 9.64191V96.4191C0 98.9763 1.01584 101.429 2.82405 103.237C4.63226 105.045 7.08471 106.061 9.64191 106.061H28.9257V117.005C28.923 118.98 29.5273 120.909 30.6568 122.53C31.7864 124.151 33.3867 125.386 35.2412 126.068C36.3195 126.477 37.4626 126.689 38.6159 126.695C40.0123 126.689 41.3908 126.38 42.656 125.789C43.9213 125.198 45.043 124.339 45.9437 123.272L60.4066 106.061H144.629C147.186 106.061 149.638 105.045 151.447 103.237C153.255 101.429 154.271 98.9763 154.271 96.4191V9.64191C154.271 7.08472 153.255 4.63226 151.447 2.82405C149.638 1.01584 147.186 0 144.629 0ZM144.629 96.4191H60.503C59.0984 96.418 57.7106 96.7237 56.4365 97.315C55.1624 97.9062 54.0329 98.7687 53.127 99.842L38.5677 117.005V106.061C38.5677 103.504 37.5518 101.051 35.7436 99.2432C33.9354 97.435 31.4829 96.4191 28.9257 96.4191H9.64191V9.64191H144.629V96.4191Z" fill="#282828"/>
<path d="M75.6146 81.9001V24.5126C75.6146 23.9691 75.8611 23.4478 76.3 23.0634C76.7389 22.679 77.3342 22.4631 77.9549 22.4631H124.762C125.383 22.4631 125.978 22.679 126.417 23.0634C126.856 23.4478 127.102 23.9691 127.102 24.5126V81.9001C127.102 82.4436 126.856 82.965 126.417 83.3493C125.978 83.7337 125.383 83.9496 124.762 83.9496H77.9549C77.3342 83.9496 76.7389 83.7337 76.3 83.3493C75.8611 82.965 75.6146 82.4436 75.6146 81.9001ZM80.2953 26.5622V79.8505H122.422V26.5622H80.2953Z" fill="#282828"/>
<path d="M28.8076 81.9001V24.5126C28.8076 23.9691 29.0542 23.4478 29.4931 23.0634C29.932 22.679 30.5272 22.4631 31.1479 22.4631H77.9549C78.5756 22.4631 79.1709 22.679 79.6098 23.0634C80.0487 23.4478 80.2953 23.9691 80.2953 24.5126V81.9001C80.2953 82.4436 80.0487 82.965 79.6098 83.3493C79.1709 83.7337 78.5756 83.9496 77.9549 83.9496H31.1479C30.5272 83.9496 29.932 83.7337 29.4931 83.3493C29.0542 82.965 28.8076 82.4436 28.8076 81.9001ZM33.4883 26.5622V79.8505H75.6145V26.5622H33.4883Z" fill="#282828"/>
<path d="M113.06 24.5126V16.3144C113.06 15.7709 113.307 15.2495 113.746 14.8652C114.185 14.4808 114.78 14.2649 115.4 14.2649H124.762C125.383 14.2649 125.978 14.4808 126.417 14.8652C126.856 15.2495 127.102 15.7709 127.102 16.3144V24.5126C127.102 25.0562 126.856 25.5775 126.417 25.9619C125.978 26.3463 125.383 26.5622 124.762 26.5622H115.4C114.78 26.5622 114.185 26.3463 113.746 25.9619C113.307 25.5775 113.06 25.0562 113.06 24.5126ZM117.741 18.364V22.4631H122.422V18.364H117.741Z" fill="#282828"/>
<path d="M103.699 24.5126V16.3144C103.699 15.7709 103.945 15.2495 104.384 14.8652C104.823 14.4808 105.418 14.2649 106.039 14.2649H115.4C116.021 14.2649 116.616 14.4808 117.055 14.8652C117.494 15.2495 117.741 15.7709 117.741 16.3144V24.5126C117.741 25.0562 117.494 25.5775 117.055 25.9619C116.616 26.3463 116.021 26.5622 115.4 26.5622H106.039C105.418 26.5622 104.823 26.3463 104.384 25.9619C103.945 25.5775 103.699 25.0562 103.699 24.5126ZM108.379 18.364V22.4631H113.06V18.364H108.379Z" fill="#282828"/>
<path d="M94.3373 24.5126V16.3144C94.3373 15.7709 94.5839 15.2495 95.0228 14.8652C95.4617 14.4808 96.057 14.2649 96.6777 14.2649H106.039C106.66 14.2649 107.255 14.4808 107.694 14.8652C108.133 15.2495 108.379 15.7709 108.379 16.3144V24.5126C108.379 25.0562 108.133 25.5775 107.694 25.9619C107.255 26.3463 106.66 26.5622 106.039 26.5622H96.6777C96.057 26.5622 95.4617 26.3463 95.0228 25.9619C94.5839 25.5775 94.3373 25.0562 94.3373 24.5126ZM99.018 18.364V22.4631H103.699V18.364H99.018Z" fill="#282828"/>
<path d="M84.9759 24.5126V16.3144C84.9759 15.7709 85.2225 15.2495 85.6614 14.8652C86.1003 14.4808 86.6956 14.2649 87.3163 14.2649H96.6777C97.2984 14.2649 97.8936 14.4808 98.3325 14.8652C98.7714 15.2495 99.018 15.7709 99.018 16.3144V24.5126C99.018 25.0562 98.7714 25.5775 98.3325 25.9619C97.8936 26.3463 97.2984 26.5622 96.6777 26.5622H87.3163C86.6956 26.5622 86.1003 26.3463 85.6614 25.9619C85.2225 25.5775 84.9759 25.0562 84.9759 24.5126ZM89.6566 18.364V22.4631H94.3373V18.364H89.6566Z" fill="#282828"/>
<path d="M75.6146 24.5126L75.6145 16.3144C75.6145 15.7708 75.8611 15.2495 76.3 14.8652C76.7389 14.4808 77.3342 14.2649 77.9549 14.2649L87.3163 14.2649C87.937 14.2649 88.5323 14.4808 88.9712 14.8652C89.4101 15.2495 89.6566 15.7708 89.6566 16.3144V24.5126C89.6566 25.0562 89.4101 25.5775 88.9712 25.9619C88.5323 26.3462 87.937 26.5622 87.3163 26.5622L77.9549 26.5622C77.3342 26.5622 76.7389 26.3462 76.3 25.9619C75.8611 25.5775 75.6146 25.0562 75.6146 24.5126ZM80.2952 18.364V22.4631H84.9759V18.364H80.2952Z" fill="#282828"/>
<path d="M66.2532 24.5126V16.3144C66.2532 15.7709 66.4997 15.2495 66.9386 14.8652C67.3775 14.4808 67.9728 14.2649 68.5935 14.2649L77.9549 14.2649C78.5756 14.2649 79.1709 14.4808 79.6098 14.8652C80.0487 15.2495 80.2953 15.7709 80.2953 16.3144V24.5126C80.2953 25.0562 80.0487 25.5775 79.6098 25.9619C79.1709 26.3463 78.5756 26.5622 77.9549 26.5622L68.5935 26.5622C67.9728 26.5622 67.3775 26.3463 66.9386 25.9619C66.4997 25.5775 66.2532 25.0562 66.2532 24.5126ZM70.9339 18.364V22.4631H75.6145V18.364H70.9339Z" fill="#282828"/>
<path d="M56.8917 24.5126V16.3144C56.8917 15.7709 57.1383 15.2495 57.5772 14.8652C58.0161 14.4808 58.6114 14.2649 59.2321 14.2649H68.5935C69.2142 14.2649 69.8094 14.4808 70.2484 14.8652C70.6873 15.2495 70.9338 15.7709 70.9338 16.3144V24.5126C70.9338 25.0562 70.6873 25.5775 70.2484 25.9619C69.8094 26.3463 69.2142 26.5622 68.5935 26.5622H59.2321C58.6114 26.5622 58.0161 26.3463 57.5772 25.9619C57.1383 25.5775 56.8917 25.0562 56.8917 24.5126ZM61.5724 18.364V22.4631H66.2531V18.364H61.5724Z" fill="#282828"/>
<path d="M47.5303 24.5126V16.3144C47.5303 15.7709 47.7769 15.2495 48.2158 14.8652C48.6547 14.4808 49.25 14.2649 49.8707 14.2649H59.2321C59.8528 14.2649 60.448 14.4808 60.8869 14.8652C61.3258 15.2495 61.5724 15.7709 61.5724 16.3144V24.5126C61.5724 25.0562 61.3258 25.5775 60.8869 25.9619C60.448 26.3463 59.8528 26.5622 59.2321 26.5622H49.8707C49.25 26.5622 48.6547 26.3463 48.2158 25.9619C47.7769 25.5775 47.5303 25.0562 47.5303 24.5126ZM52.211 18.364V22.4631H56.8917V18.364H52.211Z" fill="#282828"/>
<path d="M38.1689 24.5126V16.3144C38.1689 15.7709 38.4155 15.2495 38.8544 14.8652C39.2933 14.4808 39.8886 14.2649 40.5093 14.2649H49.8707C50.4914 14.2649 51.0867 14.4808 51.5256 14.8652C51.9645 15.2495 52.211 15.7709 52.211 16.3144V24.5126C52.211 25.0562 51.9645 25.5775 51.5256 25.9619C51.0867 26.3463 50.4914 26.5622 49.8707 26.5622H40.5093C39.8886 26.5622 39.2933 26.3463 38.8544 25.9619C38.4155 25.5775 38.1689 25.0562 38.1689 24.5126ZM42.8497 18.364V22.4631H47.5303V18.364H42.8497Z" fill="#282828"/>
<path d="M28.8076 24.5126L28.8076 16.3144C28.8076 15.7709 29.0542 15.2495 29.4931 14.8652C29.932 14.4808 30.5273 14.2649 31.1479 14.2649H40.5093C41.13 14.2649 41.7253 14.4808 42.1642 14.8652C42.6031 15.2495 42.8497 15.7709 42.8497 16.3144V24.5126C42.8497 25.0562 42.6031 25.5775 42.1642 25.9619C41.7253 26.3463 41.13 26.5622 40.5093 26.5622H31.1479C30.5273 26.5622 29.932 26.3463 29.4931 25.9619C29.0542 25.5775 28.8076 25.0562 28.8076 24.5126ZM33.4883 18.364V22.4631H38.169V18.364H33.4883Z" fill="#282828"/>
<path d="M113.06 90.0983V81.9001C113.06 81.3565 113.307 80.8352 113.746 80.4508C114.185 80.0664 114.78 79.8505 115.4 79.8505H124.762C125.383 79.8505 125.978 80.0664 126.417 80.4508C126.856 80.8352 127.102 81.3565 127.102 81.9001V90.0983C127.102 90.6418 126.856 91.1631 126.417 91.5475C125.978 91.9319 125.383 92.1478 124.762 92.1478H115.4C114.78 92.1478 114.185 91.9319 113.746 91.5475C113.307 91.1631 113.06 90.6418 113.06 90.0983ZM117.741 83.9496V88.0487H122.422V83.9496H117.741Z" fill="#282828"/>
<path d="M103.699 90.0983V81.9001C103.699 81.3565 103.945 80.8352 104.384 80.4508C104.823 80.0664 105.418 79.8505 106.039 79.8505L115.4 79.8505C116.021 79.8505 116.616 80.0664 117.055 80.4508C117.494 80.8352 117.741 81.3565 117.741 81.9001V90.0983C117.741 90.6418 117.494 91.1632 117.055 91.5475C116.616 91.9319 116.021 92.1478 115.4 92.1478L106.039 92.1478C105.418 92.1478 104.823 91.9319 104.384 91.5475C103.945 91.1632 103.699 90.6418 103.699 90.0983ZM108.379 83.9496V88.0487H113.06V83.9496H108.379Z" fill="#282828"/>
<path d="M94.3373 90.0983V81.9001C94.3373 81.3565 94.5839 80.8352 95.0228 80.4508C95.4617 80.0664 96.057 79.8505 96.6777 79.8505H106.039C106.66 79.8505 107.255 80.0664 107.694 80.4508C108.133 80.8352 108.379 81.3565 108.379 81.9001V90.0983C108.379 90.6418 108.133 91.1632 107.694 91.5475C107.255 91.9319 106.66 92.1478 106.039 92.1478H96.6777C96.057 92.1478 95.4617 91.9319 95.0228 91.5475C94.5839 91.1632 94.3373 90.6418 94.3373 90.0983ZM99.018 83.9496V88.0487H103.699V83.9496H99.018Z" fill="#282828"/>
<path d="M84.9759 90.0983V81.9001C84.9759 81.3565 85.2225 80.8352 85.6614 80.4508C86.1003 80.0664 86.6956 79.8505 87.3163 79.8505L96.6777 79.8505C97.2984 79.8505 97.8936 80.0664 98.3325 80.4508C98.7714 80.8352 99.018 81.3565 99.018 81.9001V90.0983C99.018 90.6418 98.7714 91.1631 98.3325 91.5475C97.8936 91.9319 97.2984 92.1478 96.6777 92.1478L87.3163 92.1478C86.6956 92.1478 86.1003 91.9319 85.6614 91.5475C85.2225 91.1631 84.9759 90.6418 84.9759 90.0983ZM89.6566 83.9496V88.0487H94.3373V83.9496H89.6566Z" fill="#282828"/>
<path d="M75.6145 90.0983L75.6146 81.9001C75.6146 81.3565 75.8611 80.8352 76.3 80.4508C76.7389 80.0664 77.3342 79.8505 77.9549 79.8505H87.3163C87.937 79.8505 88.5323 80.0664 88.9712 80.4508C89.4101 80.8352 89.6566 81.3565 89.6566 81.9001V90.0983C89.6566 90.6418 89.4101 91.1631 88.9712 91.5475C88.5323 91.9319 87.937 92.1478 87.3163 92.1478H77.9549C77.3342 92.1478 76.7389 91.9319 76.3 91.5475C75.8611 91.1631 75.6145 90.6418 75.6145 90.0983ZM80.2952 83.9496V88.0487H84.9759V83.9496H80.2952Z" fill="#282828"/>
<path d="M66.2532 90.0983V81.9001C66.2532 81.3565 66.4997 80.8352 66.9386 80.4508C67.3775 80.0664 67.9728 79.8505 68.5935 79.8505L77.9549 79.8505C78.5756 79.8505 79.1709 80.0664 79.6098 80.4508C80.0487 80.8352 80.2953 81.3565 80.2953 81.9001V90.0983C80.2953 90.6418 80.0487 91.1632 79.6098 91.5475C79.1709 91.9319 78.5756 92.1478 77.9549 92.1478L68.5935 92.1478C67.9728 92.1478 67.3775 91.9319 66.9386 91.5475C66.4997 91.1632 66.2532 90.6418 66.2532 90.0983ZM70.9339 83.9496V88.0487H75.6145V83.9496H70.9339Z" fill="#282828"/>
<path d="M56.8917 90.0983V81.9001C56.8917 81.3565 57.1383 80.8352 57.5772 80.4508C58.0161 80.0664 58.6114 79.8505 59.2321 79.8505H68.5935C69.2142 79.8505 69.8094 80.0664 70.2484 80.4508C70.6873 80.8352 70.9338 81.3565 70.9338 81.9001V90.0983C70.9338 90.6418 70.6873 91.1632 70.2484 91.5475C69.8094 91.9319 69.2142 92.1478 68.5935 92.1478H59.2321C58.6114 92.1478 58.0161 91.9319 57.5772 91.5475C57.1383 91.1632 56.8917 90.6418 56.8917 90.0983ZM61.5724 83.9496V88.0487H66.2531V83.9496H61.5724Z" fill="#282828"/>
<path d="M47.5303 90.0983V81.9001C47.5303 81.3565 47.7769 80.8352 48.2158 80.4508C48.6547 80.0664 49.25 79.8505 49.8707 79.8505L59.2321 79.8505C59.8528 79.8505 60.448 80.0664 60.8869 80.4508C61.3258 80.8352 61.5724 81.3565 61.5724 81.9001V90.0983C61.5724 90.6418 61.3258 91.1631 60.8869 91.5475C60.448 91.9319 59.8528 92.1478 59.2321 92.1478L49.8707 92.1478C49.25 92.1478 48.6547 91.9319 48.2158 91.5475C47.7769 91.1631 47.5303 90.6418 47.5303 90.0983ZM52.211 83.9496V88.0487H56.8917V83.9496H52.211Z" fill="#282828"/>
<path d="M38.1689 90.0983V81.9001C38.1689 81.3565 38.4155 80.8352 38.8544 80.4508C39.2933 80.0664 39.8886 79.8505 40.5093 79.8505L49.8707 79.8505C50.4914 79.8505 51.0867 80.0664 51.5256 80.4508C51.9645 80.8352 52.211 81.3565 52.211 81.9001V90.0983C52.211 90.6418 51.9645 91.1632 51.5256 91.5475C51.0867 91.9319 50.4914 92.1478 49.8707 92.1478L40.5093 92.1478C39.8886 92.1478 39.2933 91.9319 38.8544 91.5475C38.4155 91.1632 38.1689 90.6418 38.1689 90.0983ZM42.8497 83.9496V88.0487H47.5303V83.9496H42.8497Z" fill="#282828"/>
<path d="M28.8076 90.0983L28.8076 81.9001C28.8076 81.3565 29.0542 80.8352 29.4931 80.4508C29.932 80.0664 30.5273 79.8505 31.1479 79.8505H40.5093C41.13 79.8505 41.7253 80.0664 42.1642 80.4508C42.6031 80.8352 42.8497 81.3565 42.8497 81.9001V90.0983C42.8497 90.6418 42.6031 91.1632 42.1642 91.5475C41.7253 91.9319 41.13 92.1478 40.5093 92.1478H31.1479C30.5273 92.1478 29.932 91.9319 29.4931 91.5475C29.0542 91.1632 28.8076 90.6418 28.8076 90.0983ZM33.4883 83.9496V88.0487H38.169V83.9496H33.4883Z" fill="#282828"/>
<path d="M39.2605 63.1317C39.3664 62.9776 39.4868 62.7512 39.6217 62.4526C39.7565 62.1444 39.8625 61.7591 39.9395 61.2968C40.0455 60.6225 40.1611 59.8664 40.2863 59.0284C40.4211 58.1808 40.556 57.2946 40.6908 56.37C40.8353 55.4453 40.975 54.5013 41.1098 53.5381C41.2543 52.5653 41.3892 51.6117 41.5144 50.6774C41.6492 49.7334 41.7744 48.828 41.89 47.9611C42.0152 47.0846 42.126 46.2851 42.2223 45.5627C42.3187 44.8403 42.3957 44.2142 42.4535 43.6845C42.5209 43.1451 42.5691 42.7405 42.598 42.4708H44.4329L53.5208 59.4619L62.5365 42.4708H63.909L66.2785 59.6352C66.346 60.1746 66.4182 60.637 66.4953 61.0223C66.5723 61.4076 66.6494 61.7399 66.7264 62.0192C66.8035 62.2889 66.8757 62.5152 66.9431 62.6983C67.0202 62.8716 67.0925 63.0161 67.1599 63.1317V63.1895H63.5189V63.1317C63.5671 63.0257 63.6104 62.8524 63.649 62.6116C63.6971 62.3708 63.7212 62.0818 63.7212 61.7447C63.7212 61.6195 63.7164 61.4942 63.7068 61.369C63.6971 61.2342 63.6827 61.0897 63.6634 60.9356L61.8285 47.0942L53.3041 63.1317L52.3072 63.0161L43.7249 46.9498C43.3878 49.2326 43.094 51.342 42.8436 53.278C42.7377 54.1064 42.6317 54.9348 42.5257 55.7631C42.4198 56.5819 42.3235 57.3476 42.2368 58.0604C42.1597 58.7732 42.0971 59.4041 42.049 59.9531C42.0008 60.4925 41.9767 60.8922 41.9767 61.1523C41.9767 61.4798 41.9864 61.7688 42.0056 62.0192C42.0249 62.2696 42.0442 62.4815 42.0634 62.6549C42.0923 62.8572 42.1212 63.0354 42.1501 63.1895H39.2605V63.1317Z" fill="#282828"/>
<path d="M87.9043 63.1317C88.0103 62.9776 88.1307 62.7512 88.2655 62.4526C88.4004 62.1444 88.5064 61.7591 88.5834 61.2968C88.6894 60.6225 88.805 59.8664 88.9302 59.0284C89.065 58.1808 89.1999 57.2946 89.3347 56.37C89.4792 55.4453 89.6189 54.5013 89.7537 53.5381C89.8982 52.5653 90.0331 51.6117 90.1583 50.6774C90.2931 49.7334 90.4183 48.828 90.5339 47.9611C90.6591 47.0846 90.7699 46.2851 90.8662 45.5627C90.9626 44.8403 91.0396 44.2142 91.0974 43.6845C91.1648 43.1451 91.213 42.7405 91.2419 42.4708H93.0768L102.165 59.4619L111.18 42.4708H112.553L114.922 59.6352C114.99 60.1746 115.062 60.637 115.139 61.0223C115.216 61.4076 115.293 61.7399 115.37 62.0192C115.447 62.2889 115.52 62.5152 115.587 62.6983C115.664 62.8716 115.736 63.0161 115.804 63.1317V63.1895H112.163V63.1317C112.211 63.0257 112.254 62.8524 112.293 62.6116C112.341 62.3708 112.365 62.0818 112.365 61.7447C112.365 61.6195 112.36 61.4942 112.351 61.369C112.341 61.2342 112.327 61.0897 112.307 60.9356L110.472 47.0942L101.948 63.1317L100.951 63.0161L92.3688 46.9498C92.0317 49.2326 91.7379 51.342 91.4875 53.278C91.3815 54.1064 91.2756 54.9348 91.1696 55.7631C91.0637 56.5819 90.9673 57.3476 90.8807 58.0604C90.8036 58.7732 90.741 59.4041 90.6929 59.9531C90.6447 60.4925 90.6206 60.8922 90.6206 61.1523C90.6206 61.4798 90.6303 61.7688 90.6495 62.0192C90.6688 62.2696 90.688 62.4815 90.7073 62.6549C90.7362 62.8572 90.7651 63.0354 90.794 63.1895H87.9043V63.1317Z" fill="#282828"/>
</svg>
