<svg width="189" height="164" viewBox="0 0 189 164" fill="none" xmlns="http://www.w3.org/2000/svg">
<path d="M161.993 0H27.0067C24.4495 0 21.997 1.01584 20.1888 2.82405C18.3806 4.63226 17.3647 7.08472 17.3647 9.64191V96.4191C17.3647 98.9763 18.3806 101.429 20.1888 103.237C21.997 105.045 24.4495 106.061 27.0067 106.061H46.2905V117.005C46.2877 118.98 46.892 120.909 48.0216 122.53C49.1511 124.151 50.7515 125.386 52.6059 126.068C53.6843 126.477 54.8273 126.689 55.9806 126.695C57.3771 126.689 58.7556 126.38 60.0208 125.789C61.286 125.198 62.4078 124.339 63.3085 123.272L77.7713 106.061H161.993C164.551 106.061 167.003 105.045 168.811 103.237C170.62 101.429 171.635 98.9763 171.635 96.4191V9.64191C171.635 7.08472 170.62 4.63226 168.811 2.82405C167.003 1.01584 164.551 0 161.993 0ZM161.993 96.4191H77.8678C76.4632 96.418 75.0753 96.7237 73.8012 97.315C72.5272 97.9062 71.3977 98.7687 70.4917 99.842L55.9324 117.005V106.061C55.9324 103.504 54.9166 101.051 53.1084 99.2432C51.3001 97.435 48.8477 96.4191 46.2905 96.4191H27.0067V9.64191H161.993V96.4191Z" fill="black"/>
<path d="M92.9793 81.9001V24.5126C92.9793 23.9691 93.2259 23.4478 93.6648 23.0634C94.1037 22.679 94.699 22.4631 95.3197 22.4631H142.127C142.747 22.4631 143.343 22.679 143.781 23.0634C144.22 23.4478 144.467 23.9691 144.467 24.5126V81.9001C144.467 82.4436 144.22 82.965 143.781 83.3493C143.343 83.7337 142.747 83.9496 142.127 83.9496H95.3197C94.699 83.9496 94.1037 83.7337 93.6648 83.3493C93.2259 82.965 92.9793 82.4436 92.9793 81.9001ZM97.66 26.5622V79.8505H139.786V26.5622H97.66Z" fill="black"/>
<path d="M46.1723 81.9001V24.5126C46.1723 23.9691 46.4189 23.4478 46.8578 23.0634C47.2967 22.679 47.892 22.4631 48.5127 22.4631H95.3197C95.9404 22.4631 96.5356 22.679 96.9745 23.0634C97.4134 23.4478 97.66 23.9691 97.66 24.5126V81.9001C97.66 82.4436 97.4134 82.965 96.9745 83.3493C96.5356 83.7337 95.9404 83.9496 95.3197 83.9496H48.5127C47.892 83.9496 47.2967 83.7337 46.8578 83.3493C46.4189 82.965 46.1723 82.4436 46.1723 81.9001ZM50.853 26.5622V79.8505H92.9793V26.5622H50.853Z" fill="black"/>
<path d="M130.425 24.5126V16.3144C130.425 15.7709 130.671 15.2495 131.11 14.8652C131.549 14.4808 132.145 14.2649 132.765 14.2649H142.127C142.747 14.2649 143.343 14.4808 143.781 14.8652C144.22 15.2495 144.467 15.7709 144.467 16.3144V24.5126C144.467 25.0562 144.22 25.5775 143.781 25.9619C143.343 26.3463 142.747 26.5622 142.127 26.5622H132.765C132.145 26.5622 131.549 26.3463 131.11 25.9619C130.671 25.5775 130.425 25.0562 130.425 24.5126ZM135.106 18.364V22.4631H139.786V18.364H135.106Z" fill="black"/>
<path d="M121.064 24.5126V16.3144C121.064 15.7709 121.31 15.2495 121.749 14.8652C122.188 14.4808 122.783 14.2649 123.404 14.2649H132.765C133.386 14.2649 133.981 14.4808 134.42 14.8652C134.859 15.2495 135.106 15.7709 135.106 16.3144V24.5126C135.106 25.0562 134.859 25.5775 134.42 25.9619C133.981 26.3463 133.386 26.5622 132.765 26.5622H123.404C122.783 26.5622 122.188 26.3463 121.749 25.9619C121.31 25.5775 121.064 25.0562 121.064 24.5126ZM125.744 18.364V22.4631H130.425V18.364H125.744Z" fill="black"/>
<path d="M111.702 24.5126V16.3144C111.702 15.7709 111.949 15.2495 112.388 14.8652C112.826 14.4808 113.422 14.2649 114.042 14.2649H123.404C124.025 14.2649 124.62 14.4808 125.059 14.8652C125.498 15.2495 125.744 15.7709 125.744 16.3144V24.5126C125.744 25.0562 125.498 25.5775 125.059 25.9619C124.62 26.3463 124.025 26.5622 123.404 26.5622H114.042C113.422 26.5622 112.826 26.3463 112.388 25.9619C111.949 25.5775 111.702 25.0562 111.702 24.5126ZM116.383 18.364V22.4631H121.063V18.364H116.383Z" fill="black"/>
<path d="M102.341 24.5126V16.3144C102.341 15.7709 102.587 15.2495 103.026 14.8652C103.465 14.4808 104.06 14.2649 104.681 14.2649H114.042C114.663 14.2649 115.258 14.4808 115.697 14.8652C116.136 15.2495 116.383 15.7709 116.383 16.3144V24.5126C116.383 25.0562 116.136 25.5775 115.697 25.9619C115.258 26.3463 114.663 26.5622 114.042 26.5622H104.681C104.06 26.5622 103.465 26.3463 103.026 25.9619C102.587 25.5775 102.341 25.0562 102.341 24.5126ZM107.021 18.364V22.4631H111.702V18.364H107.021Z" fill="black"/>
<path d="M92.9793 24.5126L92.9793 16.3144C92.9793 15.7708 93.2258 15.2495 93.6647 14.8652C94.1037 14.4808 94.6989 14.2649 95.3196 14.2649L104.681 14.2649C105.302 14.2649 105.897 14.4808 106.336 14.8652C106.775 15.2495 107.021 15.7708 107.021 16.3144V24.5126C107.021 25.0562 106.775 25.5775 106.336 25.9619C105.897 26.3462 105.302 26.5622 104.681 26.5622L95.3196 26.5622C94.6989 26.5622 94.1037 26.3462 93.6647 25.9619C93.2258 25.5775 92.9793 25.0562 92.9793 24.5126ZM97.66 18.364V22.4631H102.341V18.364H97.66Z" fill="black"/>
<path d="M83.6179 24.5126V16.3144C83.6179 15.7709 83.8645 15.2495 84.3034 14.8652C84.7423 14.4808 85.3376 14.2649 85.9583 14.2649L95.3196 14.2649C95.9403 14.2649 96.5356 14.4808 96.9745 14.8652C97.4134 15.2495 97.66 15.7709 97.66 16.3144V24.5126C97.66 25.0562 97.4134 25.5775 96.9745 25.9619C96.5356 26.3463 95.9403 26.5622 95.3196 26.5622L85.9583 26.5622C85.3376 26.5622 84.7423 26.3463 84.3034 25.9619C83.8645 25.5775 83.6179 25.0562 83.6179 24.5126ZM88.2986 18.364V22.4631H92.9793V18.364H88.2986Z" fill="black"/>
<path d="M74.2565 24.5126V16.3144C74.2565 15.7709 74.5031 15.2495 74.942 14.8652C75.3809 14.4808 75.9761 14.2649 76.5968 14.2649H85.9583C86.579 14.2649 87.1742 14.4808 87.6131 14.8652C88.052 15.2495 88.2986 15.7709 88.2986 16.3144V24.5126C88.2986 25.0562 88.052 25.5775 87.6131 25.9619C87.1742 26.3463 86.579 26.5622 85.9583 26.5622H76.5968C75.9761 26.5622 75.3809 26.3463 74.942 25.9619C74.5031 25.5775 74.2565 25.0562 74.2565 24.5126ZM78.9372 18.364V22.4631H83.6179V18.364H78.9372Z" fill="black"/>
<path d="M64.8951 24.5126V16.3144C64.8951 15.7709 65.1417 15.2495 65.5806 14.8652C66.0195 14.4808 66.6147 14.2649 67.2354 14.2649H76.5968C77.2175 14.2649 77.8128 14.4808 78.2517 14.8652C78.6906 15.2495 78.9372 15.7709 78.9372 16.3144V24.5126C78.9372 25.0562 78.6906 25.5775 78.2517 25.9619C77.8128 26.3463 77.2175 26.5622 76.5968 26.5622H67.2354C66.6147 26.5622 66.0195 26.3463 65.5806 25.9619C65.1417 25.5775 64.8951 25.0562 64.8951 24.5126ZM69.5758 18.364V22.4631H74.2565V18.364H69.5758Z" fill="black"/>
<path d="M55.5337 24.5126V16.3144C55.5337 15.7709 55.7803 15.2495 56.2192 14.8652C56.6581 14.4808 57.2533 14.2649 57.874 14.2649H67.2354C67.8561 14.2649 68.4514 14.4808 68.8903 14.8652C69.3292 15.2495 69.5758 15.7709 69.5758 16.3144V24.5126C69.5758 25.0562 69.3292 25.5775 68.8903 25.9619C68.4514 26.3463 67.8561 26.5622 67.2354 26.5622H57.874C57.2533 26.5622 56.6581 26.3463 56.2192 25.9619C55.7803 25.5775 55.5337 25.0562 55.5337 24.5126ZM60.2144 18.364V22.4631H64.8951V18.364H60.2144Z" fill="black"/>
<path d="M46.1723 24.5126L46.1723 16.3144C46.1723 15.7709 46.4189 15.2495 46.8578 14.8652C47.2967 14.4808 47.892 14.2649 48.5127 14.2649H57.874C58.4947 14.2649 59.0901 14.4808 59.529 14.8652C59.9679 15.2495 60.2144 15.7709 60.2144 16.3144V24.5126C60.2144 25.0562 59.9679 25.5775 59.529 25.9619C59.0901 26.3463 58.4947 26.5622 57.874 26.5622H48.5127C47.892 26.5622 47.2967 26.3463 46.8578 25.9619C46.4189 25.5775 46.1723 25.0562 46.1723 24.5126ZM50.8531 18.364V22.4631H55.5337V18.364H50.8531Z" fill="black"/>
<path d="M130.425 90.0983V81.9001C130.425 81.3565 130.671 80.8352 131.11 80.4508C131.549 80.0664 132.145 79.8505 132.765 79.8505H142.127C142.747 79.8505 143.343 80.0664 143.781 80.4508C144.22 80.8352 144.467 81.3565 144.467 81.9001V90.0983C144.467 90.6418 144.22 91.1631 143.781 91.5475C143.343 91.9319 142.747 92.1478 142.127 92.1478H132.765C132.145 92.1478 131.549 91.9319 131.11 91.5475C130.671 91.1631 130.425 90.6418 130.425 90.0983ZM135.106 83.9496V88.0487H139.786V83.9496H135.106Z" fill="black"/>
<path d="M121.064 90.0983V81.9001C121.064 81.3565 121.31 80.8352 121.749 80.4508C122.188 80.0664 122.783 79.8505 123.404 79.8505L132.765 79.8505C133.386 79.8505 133.981 80.0664 134.42 80.4508C134.859 80.8352 135.106 81.3565 135.106 81.9001V90.0983C135.106 90.6418 134.859 91.1632 134.42 91.5475C133.981 91.9319 133.386 92.1478 132.765 92.1478L123.404 92.1478C122.783 92.1478 122.188 91.9319 121.749 91.5475C121.31 91.1632 121.064 90.6418 121.064 90.0983ZM125.744 83.9496V88.0487H130.425V83.9496H125.744Z" fill="black"/>
<path d="M111.702 90.0983V81.9001C111.702 81.3565 111.949 80.8352 112.388 80.4508C112.826 80.0664 113.422 79.8505 114.042 79.8505H123.404C124.025 79.8505 124.62 80.0664 125.059 80.4508C125.498 80.8352 125.744 81.3565 125.744 81.9001V90.0983C125.744 90.6418 125.498 91.1632 125.059 91.5475C124.62 91.9319 124.025 92.1478 123.404 92.1478H114.042C113.422 92.1478 112.826 91.9319 112.388 91.5475C111.949 91.1632 111.702 90.6418 111.702 90.0983ZM116.383 83.9496V88.0487H121.063V83.9496H116.383Z" fill="black"/>
<path d="M102.341 90.0983V81.9001C102.341 81.3565 102.587 80.8352 103.026 80.4508C103.465 80.0664 104.06 79.8505 104.681 79.8505L114.042 79.8505C114.663 79.8505 115.258 80.0664 115.697 80.4508C116.136 80.8352 116.383 81.3565 116.383 81.9001V90.0983C116.383 90.6418 116.136 91.1631 115.697 91.5475C115.258 91.9319 114.663 92.1478 114.042 92.1478L104.681 92.1478C104.06 92.1478 103.465 91.9319 103.026 91.5475C102.587 91.1631 102.341 90.6418 102.341 90.0983ZM107.021 83.9496V88.0487H111.702V83.9496H107.021Z" fill="black"/>
<path d="M92.9793 90.0983L92.9793 81.9001C92.9793 81.3565 93.2258 80.8352 93.6647 80.4508C94.1037 80.0664 94.6989 79.8505 95.3196 79.8505H104.681C105.302 79.8505 105.897 80.0664 106.336 80.4508C106.775 80.8352 107.021 81.3565 107.021 81.9001V90.0983C107.021 90.6418 106.775 91.1631 106.336 91.5475C105.897 91.9319 105.302 92.1478 104.681 92.1478H95.3196C94.6989 92.1478 94.1037 91.9319 93.6647 91.5475C93.2258 91.1631 92.9793 90.6418 92.9793 90.0983ZM97.66 83.9496V88.0487H102.341V83.9496H97.66Z" fill="black"/>
<path d="M83.6179 90.0983V81.9001C83.6179 81.3565 83.8645 80.8352 84.3034 80.4508C84.7423 80.0664 85.3376 79.8505 85.9583 79.8505L95.3196 79.8505C95.9403 79.8505 96.5356 80.0664 96.9745 80.4508C97.4134 80.8352 97.66 81.3565 97.66 81.9001V90.0983C97.66 90.6418 97.4134 91.1632 96.9745 91.5475C96.5356 91.9319 95.9403 92.1478 95.3196 92.1478L85.9583 92.1478C85.3376 92.1478 84.7423 91.9319 84.3034 91.5475C83.8645 91.1632 83.6179 90.6418 83.6179 90.0983ZM88.2986 83.9496V88.0487H92.9793V83.9496H88.2986Z" fill="black"/>
<path d="M74.2565 90.0983V81.9001C74.2565 81.3565 74.5031 80.8352 74.942 80.4508C75.3809 80.0664 75.9761 79.8505 76.5968 79.8505H85.9583C86.579 79.8505 87.1742 80.0664 87.6131 80.4508C88.052 80.8352 88.2986 81.3565 88.2986 81.9001V90.0983C88.2986 90.6418 88.052 91.1632 87.6131 91.5475C87.1742 91.9319 86.579 92.1478 85.9583 92.1478H76.5968C75.9761 92.1478 75.3809 91.9319 74.942 91.5475C74.5031 91.1632 74.2565 90.6418 74.2565 90.0983ZM78.9372 83.9496V88.0487H83.6179V83.9496H78.9372Z" fill="black"/>
<path d="M64.8951 90.0983V81.9001C64.8951 81.3565 65.1417 80.8352 65.5806 80.4508C66.0195 80.0664 66.6147 79.8505 67.2354 79.8505L76.5968 79.8505C77.2175 79.8505 77.8128 80.0664 78.2517 80.4508C78.6906 80.8352 78.9372 81.3565 78.9372 81.9001V90.0983C78.9372 90.6418 78.6906 91.1631 78.2517 91.5475C77.8128 91.9319 77.2175 92.1478 76.5968 92.1478L67.2354 92.1478C66.6147 92.1478 66.0195 91.9319 65.5806 91.5475C65.1417 91.1631 64.8951 90.6418 64.8951 90.0983ZM69.5758 83.9496V88.0487H74.2565V83.9496H69.5758Z" fill="black"/>
<path d="M55.5337 90.0983V81.9001C55.5337 81.3565 55.7803 80.8352 56.2192 80.4508C56.6581 80.0664 57.2533 79.8505 57.874 79.8505L67.2354 79.8505C67.8561 79.8505 68.4514 80.0664 68.8903 80.4508C69.3292 80.8352 69.5758 81.3565 69.5758 81.9001V90.0983C69.5758 90.6418 69.3292 91.1632 68.8903 91.5475C68.4514 91.9319 67.8561 92.1478 67.2354 92.1478L57.874 92.1478C57.2533 92.1478 56.6581 91.9319 56.2192 91.5475C55.7803 91.1632 55.5337 90.6418 55.5337 90.0983ZM60.2144 83.9496V88.0487H64.8951V83.9496H60.2144Z" fill="black"/>
<path d="M46.1723 90.0983L46.1723 81.9001C46.1723 81.3565 46.4189 80.8352 46.8578 80.4508C47.2967 80.0664 47.892 79.8505 48.5127 79.8505H57.874C58.4947 79.8505 59.0901 80.0664 59.529 80.4508C59.9679 80.8352 60.2144 81.3565 60.2144 81.9001V90.0983C60.2144 90.6418 59.9679 91.1632 59.529 91.5475C59.0901 91.9319 58.4947 92.1478 57.874 92.1478H48.5127C47.892 92.1478 47.2967 91.9319 46.8578 91.5475C46.4189 91.1632 46.1723 90.6418 46.1723 90.0983ZM50.8531 83.9496V88.0487H55.5337V83.9496H50.8531Z" fill="black"/>
<path d="M56.6252 63.1317C56.7312 62.9776 56.8516 62.7512 56.9864 62.4526C57.1213 62.1444 57.2272 61.7591 57.3043 61.2968C57.4102 60.6225 57.5258 59.8664 57.651 59.0284C57.7859 58.1808 57.9207 57.2946 58.0556 56.37C58.2001 55.4453 58.3397 54.5013 58.4746 53.5381C58.6191 52.5653 58.7539 51.6117 58.8791 50.6774C59.014 49.7334 59.1392 48.828 59.2548 47.9611C59.38 47.0846 59.4908 46.2851 59.5871 45.5627C59.6834 44.8403 59.7605 44.2142 59.8183 43.6845C59.8857 43.1451 59.9338 42.7405 59.9627 42.4708H61.7977L70.8855 59.4619L79.9012 42.4708H81.2738L83.6433 59.6352C83.7107 60.1746 83.7829 60.637 83.86 61.0223C83.9371 61.4076 84.0141 61.7399 84.0912 62.0192C84.1682 62.2889 84.2405 62.5152 84.3079 62.6983C84.3849 62.8716 84.4572 63.0161 84.5246 63.1317V63.1895H80.8837V63.1317C80.9318 63.0257 80.9752 62.8524 81.0137 62.6116C81.0619 62.3708 81.0859 62.0818 81.0859 61.7447C81.0859 61.6195 81.0811 61.4942 81.0715 61.369C81.0619 61.2342 81.0474 61.0897 81.0282 60.9356L79.1933 47.0942L70.6688 63.1317L69.6719 63.0161L61.0897 46.9498C60.7526 49.2326 60.4588 51.342 60.2084 53.278C60.1024 54.1064 59.9964 54.9348 59.8905 55.7631C59.7845 56.5819 59.6882 57.3476 59.6015 58.0604C59.5245 58.7732 59.4619 59.4041 59.4137 59.9531C59.3656 60.4925 59.3415 60.8922 59.3415 61.1523C59.3415 61.4798 59.3511 61.7688 59.3704 62.0192C59.3896 62.2696 59.4089 62.4815 59.4282 62.6549C59.4571 62.8572 59.486 63.0354 59.5148 63.1895H56.6252V63.1317Z" fill="black"/>
<path d="M105.269 63.1317C105.375 62.9776 105.495 62.7512 105.63 62.4526C105.765 62.1444 105.871 61.7591 105.948 61.2968C106.054 60.6225 106.17 59.8664 106.295 59.0284C106.43 58.1808 106.565 57.2946 106.699 56.37C106.844 55.4453 106.984 54.5013 107.118 53.5381C107.263 52.5653 107.398 51.6117 107.523 50.6774C107.658 49.7334 107.783 48.828 107.899 47.9611C108.024 47.0846 108.135 46.2851 108.231 45.5627C108.327 44.8403 108.404 44.2142 108.462 43.6845C108.53 43.1451 108.578 42.7405 108.607 42.4708H110.442L119.529 59.4619L128.545 42.4708H129.918L132.287 59.6352C132.355 60.1746 132.427 60.637 132.504 61.0223C132.581 61.4076 132.658 61.7399 132.735 62.0192C132.812 62.2889 132.884 62.5152 132.952 62.6983C133.029 62.8716 133.101 63.0161 133.169 63.1317V63.1895H129.528V63.1317C129.576 63.0257 129.619 62.8524 129.658 62.6116C129.706 62.3708 129.73 62.0818 129.73 61.7447C129.73 61.6195 129.725 61.4942 129.715 61.369C129.706 61.2342 129.691 61.0897 129.672 60.9356L127.837 47.0942L119.313 63.1317L118.316 63.0161L109.734 46.9498C109.396 49.2326 109.103 51.342 108.852 53.278C108.746 54.1064 108.64 54.9348 108.534 55.7631C108.428 56.5819 108.332 57.3476 108.245 58.0604C108.168 58.7732 108.106 59.4041 108.058 59.9531C108.009 60.4925 107.985 60.8922 107.985 61.1523C107.985 61.4798 107.995 61.7688 108.014 62.0192C108.034 62.2696 108.053 62.4815 108.072 62.6549C108.101 62.8572 108.13 63.0354 108.159 63.1895H105.269V63.1317Z" fill="black"/>
<path d="M3.24661 158.695V135.223H9.04261L12.8226 145.663C13.0626 146.335 13.2906 147.043 13.5066 147.787C13.7226 148.531 13.9506 149.263 14.1906 149.983H14.3346C14.5746 149.263 14.7906 148.531 14.9826 147.787C15.1986 147.043 15.4266 146.335 15.6666 145.663L19.3746 135.223H25.1346V158.695H20.3106V150.091C20.3106 149.323 20.3466 148.471 20.4186 147.535C20.5146 146.575 20.6106 145.615 20.7066 144.655C20.8266 143.695 20.9226 142.843 20.9946 142.099H20.8506L18.9426 147.679L15.5946 156.643H12.6786L9.33061 147.679L7.45861 142.099H7.31461C7.41061 142.843 7.50661 143.695 7.60261 144.655C7.69861 145.615 7.78261 146.575 7.85461 147.535C7.95061 148.471 7.99861 149.323 7.99861 150.091V158.695H3.24661ZM37.9045 159.127C36.3925 159.127 34.9645 158.767 33.6205 158.047C32.3005 157.303 31.2325 156.235 30.4165 154.843C29.6005 153.427 29.1925 151.735 29.1925 149.767C29.1925 147.775 29.6005 146.083 30.4165 144.691C31.2325 143.299 32.3005 142.243 33.6205 141.523C34.9645 140.779 36.3925 140.407 37.9045 140.407C39.4165 140.407 40.8325 140.779 42.1525 141.523C43.4725 142.243 44.5405 143.299 45.3565 144.691C46.1725 146.083 46.5805 147.775 46.5805 149.767C46.5805 151.735 46.1725 153.427 45.3565 154.843C44.5405 156.235 43.4725 157.303 42.1525 158.047C40.8325 158.767 39.4165 159.127 37.9045 159.127ZM37.9045 154.843C38.9845 154.843 39.8005 154.387 40.3525 153.475C40.9045 152.539 41.1805 151.303 41.1805 149.767C41.1805 148.207 40.9045 146.971 40.3525 146.059C39.8005 145.147 38.9845 144.691 37.9045 144.691C36.8005 144.691 35.9725 145.147 35.4205 146.059C34.8925 146.971 34.6285 148.207 34.6285 149.767C34.6285 151.303 34.8925 152.539 35.4205 153.475C35.9725 154.387 36.8005 154.843 37.9045 154.843ZM54.028 158.695L48.016 140.839H53.344L55.648 149.263C55.888 150.151 56.116 151.063 56.332 151.999C56.572 152.911 56.812 153.835 57.052 154.771H57.196C57.412 153.835 57.628 152.911 57.844 151.999C58.084 151.063 58.324 150.151 58.564 149.263L60.904 140.839H65.98L60.148 158.695H54.028ZM68.7677 158.695V140.839H74.0597V158.695H68.7677ZM71.3957 138.211C70.5077 138.211 69.7877 137.959 69.2357 137.455C68.6837 136.951 68.4077 136.279 68.4077 135.439C68.4077 134.599 68.6837 133.927 69.2357 133.423C69.7877 132.919 70.5077 132.667 71.3957 132.667C72.2837 132.667 73.0037 132.919 73.5557 133.423C74.1077 133.927 74.3837 134.599 74.3837 135.439C74.3837 136.279 74.1077 136.951 73.5557 137.455C73.0037 137.959 72.2837 138.211 71.3957 138.211ZM86.709 159.127C85.005 159.127 83.469 158.755 82.101 158.011C80.733 157.267 79.653 156.199 78.861 154.807C78.069 153.415 77.673 151.735 77.673 149.767C77.673 147.823 78.069 146.155 78.861 144.763C79.677 143.371 80.733 142.303 82.029 141.559C83.325 140.791 84.681 140.407 86.097 140.407C87.801 140.407 89.205 140.791 90.309 141.559C91.437 142.303 92.277 143.323 92.829 144.619C93.405 145.891 93.693 147.343 93.693 148.975C93.693 149.431 93.669 149.887 93.621 150.343C93.573 150.775 93.525 151.099 93.477 151.315H82.785C83.025 152.611 83.565 153.571 84.405 154.195C85.245 154.795 86.253 155.095 87.429 155.095C88.701 155.095 89.985 154.699 91.281 153.907L93.045 157.111C92.133 157.735 91.113 158.227 89.985 158.587C88.857 158.947 87.765 159.127 86.709 159.127ZM82.749 147.823H89.193C89.193 146.839 88.953 146.035 88.473 145.411C88.017 144.763 87.261 144.439 86.205 144.439C85.389 144.439 84.657 144.727 84.009 145.303C83.361 145.855 82.941 146.695 82.749 147.823ZM97.7818 158.695V135.223H103.578L107.358 145.663C107.598 146.335 107.826 147.043 108.042 147.787C108.258 148.531 108.486 149.263 108.726 149.983H108.87C109.11 149.263 109.326 148.531 109.518 147.787C109.734 147.043 109.962 146.335 110.202 145.663L113.91 135.223H119.67V158.695H114.846V150.091C114.846 149.323 114.882 148.471 114.954 147.535C115.05 146.575 115.146 145.615 115.242 144.655C115.362 143.695 115.458 142.843 115.53 142.099H115.386L113.478 147.679L110.13 156.643H107.214L103.866 147.679L101.994 142.099H101.85C101.946 142.843 102.042 143.695 102.138 144.655C102.234 145.615 102.318 146.575 102.39 147.535C102.486 148.471 102.534 149.323 102.534 150.091V158.695H97.7818ZM129.272 159.127C127.64 159.127 126.344 158.611 125.384 157.579C124.424 156.523 123.944 155.239 123.944 153.727C123.944 151.855 124.736 150.391 126.32 149.335C127.904 148.279 130.46 147.571 133.988 147.211C133.94 146.419 133.7 145.795 133.268 145.339C132.86 144.859 132.164 144.619 131.18 144.619C130.436 144.619 129.68 144.763 128.912 145.051C128.144 145.339 127.328 145.735 126.464 146.239L124.556 142.747C125.684 142.051 126.884 141.487 128.156 141.055C129.452 140.623 130.796 140.407 132.188 140.407C134.468 140.407 136.22 141.067 137.444 142.387C138.668 143.707 139.28 145.735 139.28 148.471V158.695H134.96L134.6 156.859H134.456C133.712 157.531 132.908 158.083 132.044 158.515C131.204 158.923 130.28 159.127 129.272 159.127ZM131.072 155.023C131.672 155.023 132.188 154.891 132.62 154.627C133.076 154.339 133.532 153.967 133.988 153.511V150.379C132.116 150.619 130.82 151.003 130.1 151.531C129.38 152.035 129.02 152.635 129.02 153.331C129.02 153.907 129.2 154.339 129.56 154.627C129.944 154.891 130.448 155.023 131.072 155.023ZM149.999 159.127C147.791 159.127 146.207 158.491 145.247 157.219C144.311 155.947 143.843 154.279 143.843 152.215V144.979H141.395V141.055L144.131 140.839L144.743 136.087H149.135V140.839H153.419V144.979H149.135V152.143C149.135 153.151 149.339 153.883 149.747 154.339C150.179 154.771 150.743 154.987 151.439 154.987C151.727 154.987 152.015 154.951 152.303 154.879C152.615 154.807 152.891 154.723 153.131 154.627L153.959 158.479C153.503 158.623 152.939 158.767 152.267 158.911C151.619 159.055 150.863 159.127 149.999 159.127ZM164.264 159.127C162.56 159.127 161.024 158.755 159.656 158.011C158.288 157.267 157.208 156.199 156.416 154.807C155.624 153.415 155.228 151.735 155.228 149.767C155.228 147.823 155.624 146.155 156.416 144.763C157.232 143.371 158.288 142.303 159.584 141.559C160.88 140.791 162.236 140.407 163.652 140.407C165.356 140.407 166.76 140.791 167.864 141.559C168.992 142.303 169.832 143.323 170.384 144.619C170.96 145.891 171.248 147.343 171.248 148.975C171.248 149.431 171.224 149.887 171.176 150.343C171.128 150.775 171.08 151.099 171.032 151.315H160.34C160.58 152.611 161.12 153.571 161.96 154.195C162.8 154.795 163.808 155.095 164.984 155.095C166.256 155.095 167.54 154.699 168.836 153.907L170.6 157.111C169.688 157.735 168.668 158.227 167.54 158.587C166.412 158.947 165.32 159.127 164.264 159.127ZM160.304 147.823H166.748C166.748 146.839 166.508 146.035 166.028 145.411C165.572 144.763 164.816 144.439 163.76 144.439C162.944 144.439 162.212 144.727 161.564 145.303C160.916 145.855 160.496 146.695 160.304 147.823ZM180.16 159.127C178.984 159.127 177.772 158.899 176.524 158.443C175.3 157.987 174.232 157.387 173.32 156.643L175.696 153.331C176.512 153.931 177.292 154.399 178.036 154.735C178.804 155.047 179.56 155.203 180.304 155.203C181.096 155.203 181.672 155.071 182.032 154.807C182.392 154.519 182.572 154.147 182.572 153.691C182.572 153.283 182.392 152.947 182.032 152.683C181.696 152.419 181.252 152.179 180.7 151.963C180.148 151.723 179.56 151.483 178.936 151.243C178.216 150.955 177.496 150.595 176.776 150.163C176.08 149.731 175.492 149.179 175.012 148.507C174.532 147.811 174.292 146.971 174.292 145.987C174.292 144.331 174.916 142.987 176.164 141.955C177.436 140.923 179.092 140.407 181.132 140.407C182.5 140.407 183.7 140.647 184.732 141.127C185.788 141.583 186.688 142.099 187.432 142.675L185.056 145.843C184.432 145.363 183.808 144.991 183.184 144.727C182.56 144.463 181.936 144.331 181.312 144.331C179.944 144.331 179.26 144.799 179.26 145.735C179.26 146.311 179.596 146.755 180.268 147.067C180.964 147.355 181.768 147.667 182.68 148.003C183.448 148.267 184.192 148.615 184.912 149.047C185.656 149.455 186.268 150.007 186.748 150.703C187.252 151.375 187.504 152.263 187.504 153.367C187.504 154.975 186.88 156.343 185.632 157.471C184.384 158.575 182.56 159.127 180.16 159.127Z" fill="black"/>
</svg>
