<svg width="24" height="24" viewBox="0 0 24 24" fill="none" xmlns="http://www.w3.org/2000/svg">
<path d="M22.4251 9.121C22.3342 8.84104 22.1631 8.594 21.9328 8.41063C21.7026 8.22726 21.4236 8.11566 21.1304 8.08975L15.5626 7.60974L13.3801 2.41974C13.2664 2.14742 13.0748 1.9148 12.8292 1.75117C12.5836 1.58755 12.2952 1.50024 12.0001 1.50024C11.705 1.50024 11.4165 1.58755 11.1709 1.75117C10.9254 1.9148 10.7337 2.14742 10.6201 2.41974L8.44413 7.60974L2.86976 8.09256C2.57542 8.11729 2.29493 8.22838 2.06347 8.41188C1.83201 8.59539 1.65988 8.84315 1.56867 9.1241C1.47746 9.40504 1.47122 9.70666 1.55075 9.99113C1.63027 10.2756 1.79202 10.5303 2.01569 10.7232L6.24476 14.4188L4.97726 19.9069C4.91023 20.1941 4.92936 20.4947 5.03224 20.7711C5.13512 21.0475 5.31719 21.2874 5.55569 21.4609C5.79419 21.6344 6.07853 21.7337 6.37317 21.7464C6.66781 21.7592 6.95967 21.6848 7.21226 21.5326L11.9935 18.6263L16.7851 21.5326C17.0377 21.6848 17.3295 21.7592 17.6242 21.7464C17.9188 21.7337 18.2031 21.6344 18.4416 21.4609C18.6801 21.2874 18.8622 21.0475 18.9651 20.7711C19.068 20.4947 19.0871 20.1941 19.0201 19.9069L17.7535 14.4132L21.9816 10.7232C22.2053 10.5296 22.3667 10.2742 22.4456 9.98914C22.5245 9.70406 22.5174 9.40202 22.4251 9.121ZM20.9982 9.58974L16.7701 13.2797C16.5643 13.4587 16.4112 13.6905 16.3273 13.95C16.2434 14.2095 16.2318 14.487 16.2938 14.7526L17.5641 20.2501L12.7763 17.3438C12.5427 17.2016 12.2745 17.1263 12.001 17.1263C11.7275 17.1263 11.4593 17.2016 11.2257 17.3438L6.44445 20.2501L7.70632 14.7563C7.76834 14.4907 7.75676 14.2132 7.67285 13.9537C7.58893 13.6942 7.43585 13.4625 7.23007 13.2835L3.00007 9.59537C2.99973 9.59257 2.99973 9.58974 3.00007 9.58693L8.57257 9.10506C8.84464 9.08108 9.10499 8.98327 9.32555 8.82219C9.54611 8.6611 9.7185 8.44286 9.82413 8.191L12.0001 3.00756L14.1751 8.191C14.2807 8.44286 14.4531 8.6611 14.6737 8.82219C14.8942 8.98327 15.1546 9.08108 15.4266 9.10506L21.0001 9.58693V9.59349L20.9982 9.58974Z" fill="#282828"/>
</svg>
